<svg width="100%" height="100%" viewBox="0 0 24 24" fill="none" xmlns="http://www.w3.org/2000/svg">
  <path d="M12 22C17.5228 22 22 17.5228 22 12C22 6.47715 17.5228 2 12 2C6.47715 2 2 6.47715 2 12C2 17.5228 6.47715 22 12 22Z" fill="#2D374B"/>
  <path d="M11.3522 6.5625L7.41406 13.5791L11.3522 11.8072V6.5625Z" fill="#28A0F0"/>
  <path d="M11.3522 11.8071L7.41406 13.5791L11.3522 16.8115V11.8071Z" fill="#28A0F0"/>
  <path d="M16.4958 13.579L11.3523 6.5625V11.8072L16.4958 13.579Z" fill="#96BEDC"/>
  <path d="M11.3523 16.8117L16.4958 13.5792L11.3523 11.8073V16.8117Z" fill="#96BEDC"/>
  <path d="M7.41406 14.3511L11.3522 19.3674V17.5836L7.41406 14.3511Z" fill="#28A0F0"/>
  <path d="M11.3522 17.5835V19.3674L16.5 14.3511L11.3522 17.5835Z" fill="#96BEDC"/>
</svg> 