<svg width="100%" height="100%" viewBox="0 0 24 24" fill="none" xmlns="http://www.w3.org/2000/svg">
  <path d="M12 22C17.5228 22 22 17.5228 22 12C22 6.47715 17.5228 2 12 2C6.47715 2 2 6.47715 2 12C2 17.5228 6.47715 22 12 22Z" fill="#F3BA2F"/>
  <path d="M11.9997 6.82422L9.59375 9.2334L8.25 7.88965L11.9997 4.13989L15.75 7.89278L14.4063 9.23653L11.9997 6.82422Z" fill="white"/>
  <path d="M14.8437 9.67969L16.1875 11.0234L14.8437 12.3672L13.5 11.0234L14.8437 9.67969Z" fill="white"/>
  <path d="M11.9997 9.67969L9.59375 12.0891L8.25 10.7453L11.9997 6.99554L15.75 10.7484L14.4063 12.0922L11.9997 9.67969Z" fill="white"/>
  <path d="M9.15625 9.67969L10.5 11.0234L9.15625 12.3672L7.8125 11.0234L9.15625 9.67969Z" fill="white"/>
  <path d="M11.9997 15.3594L9.59375 12.9492L8.25 14.293L11.9997 18.0428L15.75 14.2899L14.4063 12.9461L11.9997 15.3594Z" fill="white"/>
</svg> 